<svg width="1280" height="360" viewBox="0 0 1280 360" fill="none" xmlns="http://www.w3.org/2000/svg">
  <defs>
    <linearGradient id="bg" x1="0" y1="0" x2="1280" y2="360" gradientUnits="userSpaceOnUse">
      <stop offset="0" stop-color="#2E1065"/>
      <stop offset="0.45" stop-color="#6D28D9"/>
      <stop offset="1" stop-color="#A855F7"/>
    </linearGradient>
    <radialGradient id="glow1" cx="0" cy="0" r="1" gradientUnits="userSpaceOnUse" gradientTransform="translate(1040 90) rotate(90) scale(210 330)">
      <stop stop-color="#F0ABFC" stop-opacity="0.55"/>
      <stop offset="1" stop-color="#F0ABFC" stop-opacity="0"/>
    </radialGradient>
    <radialGradient id="glow2" cx="0" cy="0" r="1" gradientUnits="userSpaceOnUse" gradientTransform="translate(180 260) rotate(90) scale(170 300)">
      <stop stop-color="#C084FC" stop-opacity="0.45"/>
      <stop offset="1" stop-color="#C084FC" stop-opacity="0"/>
    </radialGradient>
    <filter id="shadow" x="-20%" y="-20%" width="140%" height="140%">
      <feDropShadow dx="0" dy="12" stdDeviation="18" flood-color="#1E1B4B" flood-opacity="0.35"/>
    </filter>
  </defs>
  <rect width="1280" height="360" rx="36" fill="url(#bg)"/>
  <rect width="1280" height="360" rx="36" fill="url(#glow1)"/>
  <rect width="1280" height="360" rx="36" fill="url(#glow2)"/>
  <circle cx="1110" cy="265" r="130" fill="#FFFFFF" opacity="0.06"/>
  <circle cx="1180" cy="120" r="55" fill="#FFFFFF" opacity="0.08"/>
  <circle cx="110" cy="78" r="70" fill="#FFFFFF" opacity="0.06"/>
  <path d="M885 80C952 120 1011 103 1058 62" stroke="#FFFFFF" stroke-opacity="0.18" stroke-width="6" stroke-linecap="round"/>
  <path d="M210 302C312 245 410 265 498 315" stroke="#FFFFFF" stroke-opacity="0.14" stroke-width="6" stroke-linecap="round"/>
  <g filter="url(#shadow)">
    <rect x="76" y="74" width="1128" height="212" rx="28" fill="#140A2F" opacity="0.32"/>
  </g>
  <text x="110" y="142" font-family="Inter, Segoe UI, Arial, sans-serif" font-size="58" font-weight="800" fill="#FFFFFF">Robert Tworek</text>
  <text x="112" y="196" font-family="Inter, Segoe UI, Arial, sans-serif" font-size="30" font-weight="500" fill="#EDE9FE">Technical Computer Science Student</text>
  <text x="112" y="242" font-family="Inter, Segoe UI, Arial, sans-serif" font-size="25" font-weight="500" fill="#DDD6FE">IT Support • Databases • Software Projects • Technical Documentation</text>
  <g opacity="0.95">
    <rect x="930" y="124" width="190" height="54" rx="27" fill="#FFFFFF" opacity="0.16"/>
    <text x="965" y="159" font-family="Inter, Segoe UI, Arial, sans-serif" font-size="22" font-weight="700" fill="#FFFFFF">Open to IT roles</text>
    <rect x="930" y="194" width="190" height="54" rx="27" fill="#FFFFFF" opacity="0.16"/>
    <text x="967" y="229" font-family="Inter, Segoe UI, Arial, sans-serif" font-size="22" font-weight="700" fill="#FFFFFF">Wrocław, PL</text>
  </g>
</svg>
